<svg xmlns="http://www.w3.org/2000/svg" xmlns:xlink="http://www.w3.org/1999/xlink" width="500" zoomAndPan="magnify" viewBox="0 0 375 374.999991" height="500" preserveAspectRatio="xMidYMid meet" version="1.0"><path fill="#2aa3e9" d="M 26.222656 254.191406 C 35.078125 262.15625 48.722656 261.4375 56.691406 252.578125 C 64.660156 243.71875 63.9375 230.078125 55.078125 222.109375 C 46.21875 214.140625 32.578125 214.863281 24.609375 223.71875 C 16.640625 232.578125 17.363281 246.222656 26.222656 254.191406 Z M 87.097656 239.058594 C 86.183594 232.855469 83.851562 226.945312 80 221.992188 L 67.207031 205.566406 C 60.605469 197.085938 51.0625 191.261719 40.425781 189.722656 C 37.898438 189.359375 35.375 188.707031 32.886719 187.757812 C 14.257812 180.628906 5.199219 159.359375 13.265625 140.867188 C 20.472656 124.363281 39.328125 115.949219 56.429688 121.601562 C 79.460938 129.210938 80.441406 149.734375 78.621094 162.085938 C 77.597656 169.019531 79.507812 176.0625 83.8125 181.589844 L 94.613281 195.460938 C 101.339844 204.101562 114.476562 203.867188 120.890625 194.992188 L 128.328125 184.699219 C 137.082031 172.578125 140.265625 157.449219 137.757812 142.714844 C 136.480469 135.21875 137.136719 127.296875 140.050781 119.675781 C 148.859375 96.664062 174.902344 85.316406 197.828125 94.722656 C 219.105469 103.441406 230.332031 128.996094 222.386719 150.574219 C 216.632812 166.210938 202.964844 176.574219 187.625 178.882812 C 172.902344 181.09375 159.609375 188.921875 150.890625 200.992188 L 136.769531 220.535156 C 133.035156 225.707031 130.625 231.746094 129.988281 238.09375 C 129.800781 239.953125 129.367188 241.820312 128.664062 243.648438 C 125.574219 251.726562 118.164062 256.875 110.078125 257.476562 L 107.660156 257.519531 C 105.359375 257.429688 103.03125 256.980469 100.757812 256.109375 C 93.199219 253.21875 88.199219 246.535156 87.097656 239.058594 " fill-opacity="1" fill-rule="nonzero"/><path fill="#5271ff" d="M 321.4375 159.359375 C 330.296875 167.328125 343.9375 166.605469 351.90625 157.742188 C 359.875 148.886719 359.152344 135.246094 350.292969 127.277344 C 341.433594 119.304688 327.792969 120.027344 319.828125 128.886719 C 311.855469 137.746094 312.578125 151.386719 321.4375 159.359375 Z M 292.066406 140.625 C 292.660156 146.867188 294.6875 152.886719 298.28125 158.03125 L 310.21875 175.089844 C 316.375 183.894531 325.609375 190.203125 336.152344 192.28125 C 338.65625 192.777344 341.148438 193.554688 343.582031 194.632812 C 361.824219 202.703125 369.78125 224.40625 360.777344 242.460938 C 352.738281 258.578125 333.476562 266.011719 316.6875 259.496094 C 294.074219 250.722656 294.140625 230.171875 296.59375 217.933594 C 297.96875 211.058594 296.425781 203.925781 292.40625 198.183594 L 282.332031 183.777344 C 276.054688 174.804688 262.921875 174.367188 256.0625 182.902344 L 248.109375 192.804688 C 238.75 204.453125 234.796875 219.40625 236.546875 234.25 C 237.433594 241.800781 236.375 249.679688 233.078125 257.140625 C 223.105469 279.675781 196.511719 289.675781 174.09375 279.109375 C 153.296875 269.308594 143.390625 243.214844 152.425781 222.074219 C 158.976562 206.746094 173.15625 197.097656 188.59375 195.578125 C 203.410156 194.121094 217.085938 186.984375 226.414062 175.375 L 241.511719 156.582031 C 245.507812 151.609375 248.222656 145.699219 249.183594 139.394531 C 249.46875 137.546875 249.996094 135.703125 250.789062 133.914062 C 254.289062 126.007812 261.953125 121.242188 270.058594 121.054688 L 272.476562 121.132812 C 274.769531 121.34375 277.074219 121.914062 279.296875 122.898438 C 286.699219 126.171875 291.347656 133.101562 292.066406 140.625 " fill-opacity="1" fill-rule="nonzero"/></svg>